<svg xmlns="http://www.w3.org/2000/svg" width="165" height="165" fill="none"><g filter="url(#a)"><circle cx="82.351" cy="62.351" r="42.351" fill="#fff"/></g><path fill="#F4B731" d="M82.473 99c20.434 0 37-16.566 37-37s-16.566-37-37-37c-20.435 0-37 16.566-37 37s16.565 37 37 37Z"/><path fill="#fff" fill-rule="evenodd" d="M66.926 43.5h15.151c9.215 0 16.201 4.893 18.801 12.011h4.72v4.304h-3.726c.072.68.109 1.373.109 2.076v.107c0 .79-.046 1.572-.139 2.335h3.756v4.302h-4.81C98.121 75.655 91.191 80.5 82.079 80.5H66.926V68.635H61.66v-4.302h5.266v-4.518H61.66v-4.302h5.266V43.5Zm4.234 25.135v8.005h10.915c6.738 0 11.743-3.207 14.071-8.005H71.16Zm26.284-4.302H71.16v-4.518h26.293c.095.71.146 1.438.146 2.183v.104c0 .76-.054 1.503-.155 2.229v.002ZM82.079 47.35c6.767 0 11.787 3.293 14.102 8.159H71.16v-8.156h10.915l.004-.003Z" clip-rule="evenodd"/><defs><filter id="a" width="164.702" height="164.702" x="0" y="0" color-interpolation-filters="sRGB" filterUnits="userSpaceOnUse"><feFlood flood-opacity="0" result="BackgroundImageFix"/><feColorMatrix in="SourceAlpha" result="hardAlpha" values="0 0 0 0 0 0 0 0 0 0 0 0 0 0 0 0 0 0 127 0"/><feOffset dy="20"/><feGaussianBlur stdDeviation="20"/><feColorMatrix values="0 0 0 0 1 0 0 0 0 0.72549 0 0 0 0 0 0 0 0 0.11 0"/><feBlend in2="BackgroundImageFix" result="effect1_dropShadow_2_412"/><feBlend in="SourceGraphic" in2="effect1_dropShadow_2_412" result="shape"/></filter></defs></svg>