<svg xmlns="http://www.w3.org/2000/svg" width="51" height="51" fill="none"><path fill="#007DFC" d="M24.669 42.683 3.731 21.745A12.698 12.698 0 0 1 0 12.738v25.475c0 7.035 5.703 12.738 12.738 12.738 5.462 0 10.12-3.438 11.931-8.268Z"/><path fill="#FC9E22" d="M25.476 12.738v25.475c0 7.035 5.702 12.738 12.737 12.738s12.738-5.703 12.738-12.738V12.738c0 7.035-5.703 12.737-12.738 12.737-7.035 0-12.737-5.703-12.737-12.737Z"/><path fill="url(#a)" fill-rule="evenodd" d="M3.73 3.73c4.975-4.974 13.04-4.974 18.014 0L47.22 29.207c4.974 4.974 4.974 13.04 0 18.014-4.975 4.974-13.04 4.974-18.014 0L3.731 21.744c-4.975-4.974-4.975-13.039 0-18.013Z" clip-rule="evenodd"/><path fill="#06D4E7" d="M24.67 42.683 8.267 26.282a12.71 12.71 0 0 1 4.47-.807c7.035 0 12.738 5.703 12.738 12.738 0 1.573-.286 3.079-.807 4.47Z"/><path fill="#FF397F" d="m26.282 8.268 16.401 16.401a12.71 12.71 0 0 1-4.47.806c-7.035 0-12.737-5.703-12.737-12.737 0-1.573.285-3.08.806-4.47Z"/><path fill="#FFB900" d="M42.683 24.669c4.83-1.81 8.267-6.47 8.267-11.931C50.95 5.703 45.248 0 38.213 0 32.75 0 28.092 3.438 26.282 8.268l16.4 16.401Z"/><path fill="#00B1F4" d="M8.268 26.282C3.438 28.092 0 32.75 0 38.212c0 7.036 5.703 12.739 12.738 12.739 5.462 0 10.12-3.438 11.931-8.268L8.268 26.282Z"/><defs><linearGradient id="a" x1=".892" x2="49.167" y1="2.293" y2="48.403" gradientUnits="userSpaceOnUse"><stop stop-color="#5231C6"/><stop offset="1" stop-color="#E60AF6"/></linearGradient></defs></svg>