<svg xmlns="http://www.w3.org/2000/svg" width="224" height="224" fill="none"><g filter="url(#a)"><circle cx="93.676" cy="76.676" r="51.676" fill="#fff"/></g><path fill="#fff" fill-rule="evenodd" d="M93.326 31.01a46.5 46.5 0 1 1 0 93 46.5 46.5 0 0 1 0-93Z" clip-rule="evenodd"/><path fill="#343434" fill-rule="evenodd" d="m93.326 40.994 12.233 18.279 12.234 18.283-24.467 12.326L68.858 77.51l12.234-18.283 12.234-18.232Zm0 53.813-23.11-12.33 23.11 31.547 23.11-31.548-23.11 12.331Z" clip-rule="evenodd"/><path fill="#343434" fill-rule="evenodd" d="m93.326 40.994 12.234 18.232 12.233 18.283-24.467-9.236V40.994Z" clip-rule="evenodd"/><path fill="#313131" fill-rule="evenodd" d="m93.326 94.807 23.157-12.33-23.157 31.594V94.807Z" clip-rule="evenodd"/><path fill="#151515" fill-rule="evenodd" d="m93.326 68.273 24.467 9.236-24.467 12.327V68.273Z" clip-rule="evenodd"/><path fill="#8C8C8C" fill-rule="evenodd" d="M93.326 40.994 81.092 59.226 68.858 77.51l24.468-9.236V40.994Z" clip-rule="evenodd"/><path fill="#8A8A8A" fill-rule="evenodd" d="m93.326 94.807-23.11-12.33 23.11 31.594V94.807Z" clip-rule="evenodd"/><path fill="#353535" fill-rule="evenodd" d="m93.326 68.273-24.468 9.236 24.468 12.327V68.273Z" clip-rule="evenodd"/><defs><filter id="a" width="223.352" height="223.352" x="0" y="0" color-interpolation-filters="sRGB" filterUnits="userSpaceOnUse"><feFlood flood-opacity="0" result="BackgroundImageFix"/><feColorMatrix in="SourceAlpha" result="hardAlpha" values="0 0 0 0 0 0 0 0 0 0 0 0 0 0 0 0 0 0 127 0"/><feOffset dx="18" dy="35"/><feGaussianBlur stdDeviation="30"/><feColorMatrix values="0 0 0 0 1 0 0 0 0 0.72549 0 0 0 0 0 0 0 0 0.11 0"/><feBlend in2="BackgroundImageFix" result="effect1_dropShadow_3_461"/><feBlend in="SourceGraphic" in2="effect1_dropShadow_3_461" result="shape"/></filter></defs></svg>