<svg xmlns="http://www.w3.org/2000/svg" width="165" height="165" fill="none"><path fill="#696867" d="M154.585 133.934H10.416V49.706a5.765 5.765 0 0 1 5.775-5.775h132.645a5.766 5.766 0 0 1 5.775 5.775v84.228h-.026Z"/><path fill="#D3C8F0" d="M148.031 50.5v76.88H16.959V50.5h131.072Z"/><path fill="#48484C" d="M152.548 146.412H12.452C5.57 146.412 0 140.817 0 133.934h165c0 6.883-5.569 12.478-12.452 12.478Z"/><path fill="#E4E4E3" d="M100.521 133.934H64.478a6.244 6.244 0 0 0 6.24 6.239h23.615c3.403 0 6.188-2.785 6.188-6.239Z"/><path fill="#C7C7C7" d="M129.732 127.385H35.269a7.344 7.344 0 0 1-7.347-7.348V25.961c0-4.073 3.3-7.347 7.348-7.347h94.436c4.074 0 7.348 3.3 7.348 7.348v94.075a7.336 7.336 0 0 1-2.135 5.194 7.318 7.318 0 0 1-5.187 2.154Z"/><path fill="#E4E4E3" d="M32.871 118.878V38.492a3.52 3.52 0 0 1 3.532-3.532h92.168a3.521 3.521 0 0 1 3.532 3.532v80.411a3.52 3.52 0 0 1-3.532 3.532H36.403c-1.934 0-3.532-1.598-3.532-3.557Z"/><path fill="#DA4765" d="M42.383 26.761a2.707 2.707 0 1 1-5.414 0 2.707 2.707 0 0 1 5.414 0Z"/><path fill="#FFD464" d="M50.713 26.761a2.707 2.707 0 1 1-5.414 0 2.707 2.707 0 0 1 5.414 0Z"/><path fill="#1A7D57" d="M59.04 26.761a2.707 2.707 0 1 1-5.415 0 2.707 2.707 0 0 1 5.414 0Z"/><path fill="#F4F4F4" d="M127.1 29.494H64.348a.955.955 0 0 1-.953-.954v-3.532c0-.516.412-.954.953-.954H127.1c.516 0 .954.413.954.954v3.532c-.026.516-.438.954-.954.954Z"/><path fill="#D3C8F0" d="M32.871 42.23h99.077v33.566H32.871V42.23Zm13.045 45.194h12.375v12.375H45.916V87.424Zm0 17.557h12.375v2.475H45.916v-2.475Zm0 7.683h12.375v2.475H45.916v-2.475Zm20.213-25.24h12.375v12.375H66.129V87.424Zm0 17.557h12.375v2.475H66.129v-2.475Zm0 7.683h12.375v2.475H66.129v-2.475Zm20.187-25.24H98.69v12.375H86.316V87.424Zm0 17.557H98.69v2.475H86.316v-2.475Zm0 7.683H98.69v2.475H86.316v-2.475Zm20.212-25.24h12.375v12.375h-12.375V87.424Zm0 17.557h12.375v2.475h-12.375v-2.475Zm0 7.683h12.375v2.475h-12.375v-2.475Z"/></svg>