<svg xmlns="http://www.w3.org/2000/svg" width="151" height="151" fill="none"><path fill="#fff" fill-rule="evenodd" d="M75.5 0a75.502 75.502 0 0 1 69.753 46.607 75.505 75.505 0 0 1-16.366 82.28 75.505 75.505 0 0 1-82.28 16.366A75.502 75.502 0 0 1 75.5 0Z" clip-rule="evenodd"/><path fill="#343434" fill-rule="evenodd" d="M75.5 16.212 95.364 45.89l19.863 29.686L75.5 95.59 35.773 75.5l19.864-29.685L75.5 16.212Zm0 87.374L37.977 83.565 75.5 134.788l37.524-51.223L75.5 103.586Z" clip-rule="evenodd"/><path fill="#343434" fill-rule="evenodd" d="m75.5 16.212 19.863 29.603L115.227 75.5 75.5 60.503V16.212Z" clip-rule="evenodd"/><path fill="#313131" fill-rule="evenodd" d="m75.5 103.586 37.599-20.021L75.5 134.864v-31.278Z" clip-rule="evenodd"/><path fill="#151515" fill-rule="evenodd" d="M75.5 60.503 115.227 75.5 75.5 95.514V60.503Z" clip-rule="evenodd"/><path fill="#8C8C8C" fill-rule="evenodd" d="M75.5 16.212 55.637 45.815 35.773 75.5 75.5 60.503V16.212Z" clip-rule="evenodd"/><path fill="#8A8A8A" fill-rule="evenodd" d="M75.5 103.586 37.977 83.565 75.5 134.864v-31.278Z" clip-rule="evenodd"/><path fill="#353535" fill-rule="evenodd" d="M75.5 60.503 35.773 75.5 75.5 95.514V60.503Z" clip-rule="evenodd"/></svg>