<svg xmlns="http://www.w3.org/2000/svg" width="168" height="168" fill="none"><g filter="url(#a)"><circle cx="84" cy="64" r="44" fill="#fff"/></g><path fill="#2775CA" d="M83.5 101A37.5 37.5 0 1 0 46 63.5 37.41 37.41 0 0 0 83.5 101Z"/><path fill="#fff" d="M93.813 69.439c0-5.455-3.28-7.347-9.843-8.128-4.69-.623-5.624-1.875-5.624-4.06 0-2.185 1.56-3.596 4.684-3.596 2.816 0 4.377.937 5.158 3.282a1.176 1.176 0 0 0 1.108.768h2.498a1.067 1.067 0 0 0 1.095-1.095v-.153a7.807 7.807 0 0 0-7.03-6.41v-3.75c0-.623-.47-1.09-1.251-1.247h-2.345c-.624 0-1.091.467-1.248 1.248v3.606c-4.701.641-7.67 3.75-7.67 7.657 0 5.158 3.126 7.19 9.688 7.97 4.374.781 5.796 1.705 5.796 4.218 0 2.512-2.186 4.22-5.155 4.22-4.064 0-5.455-1.704-5.939-4.063a1.142 1.142 0 0 0-1.111-.952h-2.67a1.07 1.07 0 0 0-1.094 1.095v.157c.628 3.906 3.126 6.719 8.284 7.5v3.75c0 .623.467 1.094 1.248 1.25h2.346c.623 0 1.094-.47 1.247-1.25v-3.75c4.688-.781 7.814-4.064 7.814-8.281l.013.014Z"/><path fill="#fff" d="M75.53 85.843a23.383 23.383 0 0 1 0-43.906 1.568 1.568 0 0 0 .94-1.56v-2.19a1.19 1.19 0 0 0-.94-1.25.938.938 0 0 0-.624.156 28.118 28.118 0 0 0 0 53.594.951.951 0 0 0 1.408-.623c.157-.157.157-.314.157-.628v-2.185c0-.47-.47-1.094-.941-1.408Zm16.564-48.75a.951.951 0 0 0-1.408.627c-.153.154-.153.31-.153.624v2.186a2.069 2.069 0 0 0 .938 1.564 23.381 23.381 0 0 1 11.118 35.341A23.38 23.38 0 0 1 91.471 86a1.565 1.565 0 0 0-.938 1.561v2.189A1.19 1.19 0 0 0 91.471 91c.22.023.44-.032.623-.157a28.237 28.237 0 0 0 0-53.75Z"/><defs><filter id="a" width="168" height="168" x="0" y="0" color-interpolation-filters="sRGB" filterUnits="userSpaceOnUse"><feFlood flood-opacity="0" result="BackgroundImageFix"/><feColorMatrix in="SourceAlpha" result="hardAlpha" values="0 0 0 0 0 0 0 0 0 0 0 0 0 0 0 0 0 0 127 0"/><feOffset dy="20"/><feGaussianBlur stdDeviation="20"/><feColorMatrix values="0 0 0 0 1 0 0 0 0 0.72549 0 0 0 0 0 0 0 0 0.11 0"/><feBlend in2="BackgroundImageFix" result="effect1_dropShadow_3_442"/><feBlend in="SourceGraphic" in2="effect1_dropShadow_3_442" result="shape"/></filter></defs></svg>