<svg xmlns="http://www.w3.org/2000/svg" width="148" height="148" fill="none"><g filter="url(#a)"><circle cx="74" cy="54" r="34" fill="#fff"/></g><path fill="#26A17B" d="M74 82c15.464 0 28-12.536 28-28S89.464 26 74 26 46 38.536 46 54s12.536 28 28 28Z"/><path fill="#fff" fill-rule="evenodd" d="M77.364 56.42v-.003c-.193.014-1.185.074-3.399.074-1.767 0-3.012-.053-3.45-.074v.005c-6.803-.299-11.882-1.483-11.882-2.901 0-1.416 5.079-2.6 11.883-2.905v4.627c.444.032 1.718.107 3.479.107 2.112 0 3.17-.088 3.369-.105V50.62c6.79.302 11.856 1.487 11.856 2.901 0 1.417-5.066 2.599-11.856 2.9Zm0-6.282v-4.14h9.474v-6.314H61.041v6.314h9.475v4.139c-7.7.353-13.49 1.879-13.49 3.706s5.79 3.351 13.49 3.706v13.269h6.848V57.546c7.687-.353 13.464-1.878 13.464-3.703s-5.777-3.35-13.464-3.705" clip-rule="evenodd"/><defs><filter id="a" width="148" height="148" x="0" y="0" color-interpolation-filters="sRGB" filterUnits="userSpaceOnUse"><feFlood flood-opacity="0" result="BackgroundImageFix"/><feColorMatrix in="SourceAlpha" result="hardAlpha" values="0 0 0 0 0 0 0 0 0 0 0 0 0 0 0 0 0 0 127 0"/><feOffset dy="20"/><feGaussianBlur stdDeviation="20"/><feColorMatrix values="0 0 0 0 1 0 0 0 0 0.72549 0 0 0 0 0 0 0 0 0.11 0"/><feBlend in2="BackgroundImageFix" result="effect1_dropShadow_3_420"/><feBlend in="SourceGraphic" in2="effect1_dropShadow_3_420" result="shape"/></filter></defs></svg>