<svg width="1928" height="1466" viewBox="0 0 1928 1466" fill="none" xmlns="http://www.w3.org/2000/svg">
<g clip-path="url(#clip0_221_2478)" filter="url(#filter0_d_221_2478)">
<rect width="1920" height="1458" transform="translate(4)" fill="#F8F8F8"/>

<path opacity="1" d="M-464.1768 383.0753 C-289.193 326.2195 -246.0559 457.5324 -70.2188 400.3994 C105.6184 343.2666 62.4811 211.9538 238.7443 154.6824 C415.0086 97.4107 457.7192 228.8609 633.1294 171.8679 C808.5404 114.8732 765.4022 -16.4392 940.8124 -73.4333 C1118.3566 -131.121 1160.6415 0.4687 1336.0515 -56.5254 C1511.4614 -113.5197 1471.737 -245.9402 1645.4379 -302.3791 C1821.7069 -359.6523 1863.1338 -227.7849 2039.8304 -285.1971 C2214.8059 -342.05 2172.5227 -473.6405 2348.7915 -530.9135 C2525.0509 -588.1837 2567.7618 -456.7324 2743.1748 -513.7274" stroke="#f6e9fa" stroke-opacity="1" stroke-width="35"/>
<path opacity="1" d="M-446.0572 442.208 C-271.0734 385.3523 -227.9363 516.6651 -52.0992 459.5321 C123.738 402.3993 80.6007 271.0865 256.8639 213.8151 C433.1282 156.5434 475.8388 287.9936 651.249 231.0006 C826.66 174.0059 783.5218 42.6935 958.932 -14.3005 C1136.4762 -71.9882 1178.7611 59.6015 1354.1711 2.6073 C1529.581 -54.3869 1489.8566 -186.8075 1663.5575 -243.2464 C1839.8265 -300.5195 1881.2534 -168.6521 2057.95 -226.0644 C2232.9255 -282.9172 2190.6423 -414.5077 2366.9111 -471.7807 C2543.1705 -529.0509 2585.8814 -397.5997 2761.2944 -454.5947" stroke="#f6e9fa" stroke-opacity="1" stroke-width="35"/>

<path opacity="1" d="M-213.332 942.1381C-40.4389 879.2101 7.2547 1008.9375 180.9908 945.7028 354.7267 882.468 307.0331 752.7407 481.1901 689.3527 655.3482 625.9643 702.6205 755.844 875.9347 692.7638 1049.2498 629.6823 1001.5552 499.9553 1174.8693 436.8741 1350.2921 373.0255 1397.1438 503.0593 1570.4578 439.9781 1743.7719 376.897 1699.4502 245.9433 1871.0757 183.4768 2045.2383 120.0868 2091.2421 250.4281 2265.8276 186.8843 2438.7122 123.9593 2391.8624-6.0751 2566.025-69.4652 2740.1783-132.8517 2787.4509-2.9712 2960.7678-66.0534" stroke="#f6e9fa" stroke-opacity="1" stroke-width="35"/>
<path opacity="1" d="
M-196.231 989.1228C-23.3379 926.1948 24.3558 1055.9222 198.0917 992.6874 371.8278 929.4526 324.1341 799.7253 498.2911 736.3374 672.4492 672.949 719.7216 802.8286 893.0358 739.7485 1066.3508 676.6669 1018.6563 546.9399 1191.9703 483.8588 1367.393 420.0101 1414.2447 550.0439 1587.5588 486.9628 1760.873 423.8816 1716.5513 292.928 1888.1767 230.4614 2062.3394 167.0714 2108.3431 297.4127 2282.9285 233.8688 2455.8132 170.944 2408.9634 40.9095 2583.1261-22.4805 2757.2793-85.8671 2804.5519 44.0135 2977.8688-19.0687" stroke="#f6e9fa" stroke-opacity="1" stroke-width="35"/>

<path opacity="1" d="M-196.0205 1430.9746C-18.3008 1383.3547 17.9049 1516.7452 196.491 1468.8932 375.0772 1421.0411 338.8715 1287.6507 517.8904 1239.6827 696.9105 1191.7144 732.6832 1325.2199 910.8357 1277.4851 1088.9891 1229.749 1052.7825 1096.3588 1230.9349 1048.623 1411.2549 1000.3064 1446.5951 1133.9288 1624.7476 1086.193 1802.9001 1038.4572 1770.1604 904.139 1946.5771 856.8683 2125.6018 808.8988 2160.0705 942.7536 2339.5298 894.6676 2517.2408 847.0501 2481.9026 713.4272 2660.9273 665.4577 2839.9423 617.4908 2875.7152 750.9972 3053.8706 703.2606
" stroke="#f6e9fa" stroke-opacity="1" stroke-width="35"/>
<path opacity="1" d="M-176.0205 1490.9746C1.6992 1443.3547 37.9049 1576.7452 216.491 1528.8932 395.0772 1481.0411 358.8715 1347.6507 537.8904 1299.6827 716.9105 1251.7144 752.6832 1385.2199 930.8357 1337.4851 1108.9891 1289.749 1072.7825 1156.3588 1250.9349 1108.623 1431.2549 1060.3064 1466.5951 1193.9288 1644.7476 1146.193 1822.9001 1098.4572 1790.1604 964.139 1966.5771 916.8683 2145.6018 868.8988 2180.0705 1002.7536 2359.5298 954.6676 2537.2408 907.0501 2501.9026 773.4272 2680.9273 725.4577 2859.9423 677.4908 2895.7152 810.9972 3073.8706 763.2606" stroke="#f6e9fa" stroke-opacity="1" stroke-width="35"/>

<circle cx="1744.5" cy="64.5" r="22.5" fill="#F8F8FF"/>
</g>
<defs>
<filter id="filter0_d_221_2478" x="0" y="0" width="1928" height="1466" filterUnits="userSpaceOnUse" color-interpolation-filters="sRGB">
<feFlood flood-opacity="0" result="BackgroundImageFix"/>
<feColorMatrix in="SourceAlpha" type="matrix" values="0 0 0 0 0 0 0 0 0 0 0 0 0 0 0 0 0 0 127 0" result="hardAlpha"/>
<feOffset dy="4"/>
<feGaussianBlur stdDeviation="2"/>
<feComposite in2="hardAlpha" operator="out"/>
<feColorMatrix type="matrix" values="0 0 0 0 0 0 0 0 0 0 0 0 0 0 0 0 0 0 0.25 0"/>
<feBlend mode="normal" in2="BackgroundImageFix" result="effect1_dropShadow_221_2478"/>
<feBlend mode="normal" in="SourceGraphic" in2="effect1_dropShadow_221_2478" result="shape"/>
</filter>
<linearGradient id="paint0_linear_221_2478" x1="1186.91" y1="923" x2="748.795" y2="-175.929" gradientUnits="userSpaceOnUse">
<stop stop-color="#D60FF1"/>
<stop offset="1" stop-color="#5F2ECB"/>
</linearGradient>
<linearGradient id="paint1_linear_221_2478" x1="1175.91" y1="430" x2="737.795" y2="-668.929" gradientUnits="userSpaceOnUse">
<stop stop-color="#D60FF1"/>
<stop offset="1" stop-color="#5F2ECB"/>
</linearGradient>
<linearGradient id="paint2_linear_221_2478" x1="1131.91" y1="697" x2="693.795" y2="-401.929" gradientUnits="userSpaceOnUse">
<stop stop-color="#D60FF1"/>
<stop offset="1" stop-color="#5F2ECB"/>
</linearGradient>
<clipPath id="clip0_221_2478">
<rect width="1920" height="1458" fill="white" transform="translate(4)"/>
</clipPath>
</defs>
</svg>
