<svg width="1928" height="1466" viewBox="0 0 1928 1466" fill="none" xmlns="http://www.w3.org/2000/svg">
<g clip-path="url(#clip0_221_2478)" filter="url(#filter0_d_221_2478)">
<rect width="1920" height="1458" transform="translate(4)" fill="#121212"/>
<path opacity="1" d="M-885 790C-701.011 790 -700.563 928.216 -515.677 928.216C-330.791 928.216 -331.239 790 -145.905 790C39.4302 790 39.4302 928.215 223.867 928.216C408.305 928.216 407.856 790 592.293 790C778.974 790 778.526 928.216 962.963 928.216C1147.4 928.216 1150.54 790.001 1333.18 790.001C1518.52 790.001 1517.17 928.216 1702.96 928.216C1886.94 928.216 1887.39 790 2072.73 790C2258.06 790 2258.06 928.216 2442.5 928.216" stroke="url(#paint0_linear_221_2478)" stroke-opacity="0.1" stroke-width="53.8503"/>
<path opacity="1" d="M-896 297C-712.011 297 -711.563 435.216 -526.677 435.216C-341.791 435.216 -342.239 297 -156.905 297C28.4302 297 28.4302 435.215 212.867 435.216C397.305 435.216 396.856 297 581.293 297C767.974 297 767.526 435.216 951.963 435.216C1136.4 435.216 1139.54 297.001 1322.18 297.001C1507.52 297.001 1506.17 435.216 1691.96 435.216C1875.94 435.216 1876.39 297 2061.73 297C2247.06 297 2247.06 435.216 2431.5 435.216" stroke="url(#paint1_linear_221_2478)" stroke-opacity="0.1" stroke-width="53.8503"/>
<path opacity="1" d="M-940 564C-756.011 564 -755.563 702.216 -570.677 702.216C-385.791 702.216 -386.239 564 -200.905 564C-15.5698 564 -15.5698 702.215 168.867 702.216C353.305 702.216 352.856 564 537.293 564C723.974 564 723.526 702.216 907.963 702.216C1092.4 702.216 1095.54 564.001 1278.18 564.001C1463.52 564.001 1462.17 702.216 1647.96 702.216C1831.94 702.216 1832.39 564 2017.73 564C2203.06 564 2203.06 702.216 2387.5 702.216" stroke="url(#paint2_linear_221_2478)" stroke-opacity="0.1" stroke-width="53.8503"/>
<circle cx="1744.5" cy="64.5" r="22.5" fill="#F8F8FF"/>
</g>
<defs>
<filter id="filter0_d_221_2478" x="0" y="0" width="1928" height="1466" filterUnits="userSpaceOnUse" color-interpolation-filters="sRGB">
<feFlood flood-opacity="0" result="BackgroundImageFix"/>
<feColorMatrix in="SourceAlpha" type="matrix" values="0 0 0 0 0 0 0 0 0 0 0 0 0 0 0 0 0 0 127 0" result="hardAlpha"/>
<feOffset dy="4"/>
<feGaussianBlur stdDeviation="2"/>
<feComposite in2="hardAlpha" operator="out"/>
<feColorMatrix type="matrix" values="0 0 0 0 0 0 0 0 0 0 0 0 0 0 0 0 0 0 0.25 0"/>
<feBlend mode="normal" in2="BackgroundImageFix" result="effect1_dropShadow_221_2478"/>
<feBlend mode="normal" in="SourceGraphic" in2="effect1_dropShadow_221_2478" result="shape"/>
</filter>
<linearGradient id="paint0_linear_221_2478" x1="1186.91" y1="923" x2="748.795" y2="-175.929" gradientUnits="userSpaceOnUse">
<stop stop-color="#D60FF1"/>
<stop offset="1" stop-color="#5F2ECB"/>
</linearGradient>
<linearGradient id="paint1_linear_221_2478" x1="1175.91" y1="430" x2="737.795" y2="-668.929" gradientUnits="userSpaceOnUse">
<stop stop-color="#D60FF1"/>
<stop offset="1" stop-color="#5F2ECB"/>
</linearGradient>
<linearGradient id="paint2_linear_221_2478" x1="1131.91" y1="697" x2="693.795" y2="-401.929" gradientUnits="userSpaceOnUse">
<stop stop-color="#D60FF1"/>
<stop offset="1" stop-color="#5F2ECB"/>
</linearGradient>
<clipPath id="clip0_221_2478">
<rect width="1920" height="1458" fill="white" transform="translate(4)"/>
</clipPath>
</defs>
</svg>
